<svg width="116" height="80" viewBox="0 0 116 80" fill="none" xmlns="http://www.w3.org/2000/svg">
<path d="M23.8052 30.9999C23.8052 40.9411 31.864 48.9999 41.8052 48.9999L68.8052 48.9999C71.5666 48.9999 73.8052 46.7614 73.8052 43.9999L73.8052 9.99994C73.8052 4.47709 69.328 -6.08322e-05 63.8052 -6.0394e-05L28.8052 -5.76171e-05C26.0437 -5.73981e-05 23.8052 2.23852 23.8052 4.99994L23.8052 30.9999Z" fill="#FFF1DA"/>
<path d="M51.0624 14.8432C50.8376 14.728 50.6117 14.7077 50.4289 14.7855L45.6047 16.8305C45.201 17.0005 45.1109 17.5941 45.4039 18.1567C45.4709 18.2856 45.555 18.4061 45.6516 18.5112L60.4226 34.6639L76.5089 27.845L51.0624 14.8432Z" fill="#029BC5"/>
<path d="M108.266 28.5391L61.1502 53.045L32.1095 56.6275L16.7878 53.6679L14.5662 48.3236L93.2721 9.08319C95.6166 7.90328 98.3594 7.81624 101.223 8.83144C102.478 9.2864 103.743 9.96511 104.986 10.851C106.087 11.6236 107.158 12.5991 108.165 13.7483C109.291 15.0426 111.285 16.1026 112.094 17.9806C112.096 17.9792 114.379 25.9004 108.266 28.5391V28.5391Z" fill="#E1E6E9"/>
<path d="M58.5937 39.0716L42.2413 76.922C42.046 77.4686 42.3001 78.2856 42.8084 78.7466C43.1203 79.0295 43.4716 79.1234 43.7418 78.9962L48.7834 76.6296C49.753 76.174 50.5685 75.415 51.1796 74.3996L85.8134 25.1403L58.5937 39.0716Z" fill="#029BC5"/>
<path d="M6.48392 40.1346C6.1209 39.871 5.72177 39.7893 5.41245 39.9151L1.52868 41.4939C0.999436 41.7087 0.882427 42.4565 1.26719 43.1644C1.34046 43.299 1.42891 43.4264 1.52962 43.5417L15.2726 59.3024L26.739 54.8324L6.48392 40.1346Z" fill="#029BC5"/>
<path d="M17.4121 58.386L11.9729 68.8178C11.8927 68.9669 11.946 69.222 12.0918 69.3873C12.197 69.5064 12.3266 69.5506 12.4215 69.4996L16.3375 67.6308C16.368 67.6163 16.3943 67.5929 16.4147 67.5619L24.6718 54.9285L17.4121 58.386Z" fill="#029BC5"/>
<path d="M105.691 8.35416C104.478 7.64267 103.244 7.09972 102.02 6.7373C101.087 8.36099 100.624 10.42 100.678 12.709C100.722 13.1821 101.078 13.6529 101.474 13.7605C101.596 13.7938 101.714 13.7889 101.814 13.746L108.796 10.6853C107.811 9.75933 106.766 8.97448 105.691 8.35416Z" fill="#029BC5"/>
<path d="M89.3323 15.1827L93.4511 13.6284L98.9259 23.08L94.8071 24.6344L89.3323 15.1827Z" fill="#D5D6DB"/>
<path d="M86.0288 19.5242C85.5284 19.7081 85.4245 20.3891 85.797 21.0453L86.4005 22.1084C86.7896 22.7579 87.5003 23.1174 87.9881 22.9114C88.4522 22.715 88.5502 22.0734 88.2118 21.4428L87.6083 20.3797C87.2361 19.724 86.5292 19.341 86.0288 19.5242V19.5242Z" fill="#3A556A"/>
<path d="M81.5644 22.2967C81.0641 22.4806 80.9601 23.1616 81.3326 23.8178L81.9362 24.8809C82.3253 25.5304 83.036 25.8899 83.5237 25.6838C83.9879 25.4875 84.0858 24.8459 83.7475 24.2152L83.144 23.1521C82.7716 22.4965 82.0646 22.1136 81.5644 22.2967V22.2967Z" fill="#3A556A"/>
<path d="M77.0988 25.0697C76.5991 25.2543 76.4958 25.9346 76.868 26.5903L77.4715 27.6534C77.8606 28.3028 78.5714 28.6623 79.0591 28.4563C79.5233 28.26 79.6212 27.6184 79.2829 26.9878L78.6794 25.9247C78.3069 25.2685 77.5993 24.8857 77.0988 25.0697V25.0697Z" fill="#3A556A"/>
<path d="M72.6344 27.842C72.1348 28.0266 72.0315 28.707 72.4037 29.3627L73.0072 30.4258C73.3963 31.0753 74.107 31.4348 74.5948 31.2287C75.0589 31.0324 75.1569 30.3908 74.8185 29.7602L74.215 28.697C73.8423 28.0409 73.1347 27.6581 72.6344 27.842V27.842Z" fill="#3A556A"/>
<path d="M68.1693 30.6142C67.6699 30.7985 67.5667 31.4778 67.9387 32.1324L68.5419 33.1938C68.9137 33.8481 69.6202 34.2299 70.1198 34.0465C70.6194 33.8631 70.723 33.184 70.3512 32.5297L69.748 31.4683C69.3768 30.8138 68.6705 30.4313 68.1704 30.6138C68.17 30.614 68.1697 30.6141 68.1693 30.6142Z" fill="#3A556A"/>
<path d="M63.705 33.3867C63.2056 33.571 63.1023 34.2502 63.4743 34.9048L64.0775 35.9662C64.4493 36.6205 65.1558 37.0023 65.6554 36.8189C66.1551 36.6356 66.2587 35.9565 65.8869 35.3022L65.2837 34.2408C64.9125 33.5862 64.2061 33.2037 63.706 33.3863C63.7056 33.3864 63.7052 33.3866 63.705 33.3867Z" fill="#3A556A"/>
<path d="M59.2404 36.1593C58.741 36.3436 58.6378 37.0229 59.0097 37.6775L59.6129 38.7389C59.9854 39.3931 60.692 39.7738 61.191 39.5897C61.6891 39.4058 61.7925 38.7282 61.4221 38.075L60.8189 37.0135C60.4471 36.3588 59.7406 35.9764 59.2404 36.1593Z" fill="#3A556A"/>
<path d="M54.7758 38.9318C54.2764 39.1161 54.1732 39.7954 54.5452 40.45L55.1483 41.5115C55.5208 42.1656 56.2274 42.5464 56.7264 42.3622C57.2245 42.1784 57.3279 41.5007 56.9575 40.8475L56.3543 39.786C55.9825 39.1313 55.2759 38.7489 54.7758 38.9318Z" fill="#3A556A"/>
<path d="M50.3114 41.7042C49.812 41.8885 49.7088 42.5678 50.0808 43.2224L50.684 44.2839C51.0564 44.938 51.7631 45.3187 52.262 45.1346C52.7602 44.9508 52.8636 44.2731 52.4931 43.6199L51.89 42.5585C51.518 41.9038 50.8114 41.5214 50.3114 41.7042Z" fill="#3A556A"/>
<path d="M45.8456 44.4774C45.346 44.6608 45.2424 45.34 45.6142 45.9943L45.615 45.9957L46.2182 47.0572C46.5906 47.7113 47.2973 48.092 47.7962 47.9079C48.2943 47.724 48.3977 47.0463 48.0273 46.3931L47.4241 45.3317C47.0523 44.677 46.3458 44.2945 45.8456 44.4774Z" fill="#3A556A"/>
<path d="M41.3825 47.2491C40.8828 47.4325 40.7792 48.1116 41.1511 48.766L41.1518 48.7673L41.755 49.8288C42.1275 50.4829 42.8342 50.8636 43.3331 50.6795C43.8313 50.4957 43.9347 49.818 43.5642 49.1648L42.9611 48.1034C42.589 47.4487 41.8825 47.0663 41.3825 47.2491Z" fill="#3A556A"/>
<path d="M71.6254 44.9986C70.3019 44.8355 69.057 45.0047 67.9679 45.495C65.1223 46.7111 63.7467 49.4961 64.8956 51.715C66.0444 53.9339 69.2824 54.7459 72.128 53.5298C73.2381 53.08 74.1753 52.3171 74.8819 51.2882C75.2063 50.7845 75.1689 49.9843 74.7867 49.2479L73.2943 46.3653C72.914 45.6277 72.2591 45.0918 71.6254 44.9986Z" fill="#D5D6DB"/>
<path d="M63.9484 17.9899C62.9887 17.8718 62.0859 17.9947 61.2961 18.3504C59.2331 19.232 58.2349 21.2513 59.0673 22.859C59.8997 24.4668 62.2485 25.0557 64.3112 24.1741C65.1161 23.8476 65.7955 23.2938 66.3081 22.5477C66.5429 22.1824 66.5157 21.6026 66.2387 21.0687L65.158 18.9813C64.8826 18.4466 64.4079 18.0577 63.9484 17.9899Z" fill="#D5D6DB"/>
</svg>
