<svg width="107" height="36" viewBox="0 0 107 36" fill="none" xmlns="http://www.w3.org/2000/svg">
<rect y="0.146606" width="107" height="35" rx="17.5" fill="#080809"/>
<g clip-path="url(#clip0_417_974)">
<path d="M28.5075 17.1483L18.4639 26.8196C17.9936 26.4982 17.7144 25.9635 17.7193 25.3939V8.90281C17.7144 8.33318 17.9936 7.79854 18.4639 7.47711L28.5075 17.1483Z" fill="#2196F3"/>
<path d="M32.0217 13.7702L28.5074 17.1484L18.4639 7.47714C18.5017 7.44781 18.5411 7.42052 18.5819 7.39541C19.1127 7.07369 19.7757 7.0633 20.3164 7.36817L32.0217 13.7702Z" fill="#4CAF50"/>
<path d="M36.2806 17.1484C36.2872 17.7914 35.9377 18.3854 35.3725 18.6922L32.0217 20.5265L28.5073 17.1484L32.0217 13.7703L35.3725 15.6046C35.9377 15.9113 36.2872 16.5053 36.2806 17.1484Z" fill="#F0BB1F"/>
<path d="M32.0217 20.5265L20.3164 26.9286C19.7745 27.2287 19.114 27.2183 18.5819 26.9013C18.5411 26.8762 18.5017 26.8489 18.4639 26.8196L28.5074 17.1484L32.0217 20.5265Z" fill="#F15A2B"/>
</g>
<path d="M48.024 12.0266H45.216V13.1466H46.712C46.512 13.6826 46.024 14.0106 45.28 14.0106C44.192 14.0106 43.52 13.3146 43.52 12.3626C43.52 11.3786 44.224 10.6826 45.168 10.6826C45.8 10.6826 46.304 10.9706 46.536 11.3386L47.624 10.7146C47.152 9.96263 46.248 9.43463 45.176 9.43463C43.528 9.43463 42.24 10.7306 42.24 12.3546C42.24 13.9626 43.504 15.2586 45.264 15.2586C46.832 15.2586 48.024 14.2186 48.024 12.5066V12.0266Z" fill="white"/>
<path d="M49.6256 13.9146V12.9226H51.6256V11.7066H49.6256V10.7786H51.8256V9.54663H48.3456V15.1466H51.8656V13.9146H49.6256Z" fill="white"/>
<path d="M55.9478 9.54663H51.7878V10.7786H53.2278V15.1466H54.5078V10.7786H55.9478V9.54663Z" fill="white"/>
<path d="M57.7081 9.54663V15.1466H58.9881V9.54663H57.7081Z" fill="white"/>
<path d="M63.3103 9.54663H59.1503V10.7786H60.5903V15.1466H61.8703V10.7786H63.3103V9.54663Z" fill="white"/>
<path d="M67.7426 15.2586C69.3506 15.2586 70.6546 13.9946 70.6546 12.3466C70.6546 10.6986 69.3506 9.43463 67.7426 9.43463C66.1346 9.43463 64.8306 10.6986 64.8306 12.3466C64.8306 13.9946 66.1346 15.2586 67.7426 15.2586ZM67.7426 14.0106C66.8306 14.0106 66.1106 13.3466 66.1106 12.3466C66.1106 11.3466 66.8306 10.6826 67.7426 10.6826C68.6546 10.6826 69.3746 11.3466 69.3746 12.3466C69.3746 13.3466 68.6546 14.0106 67.7426 14.0106Z" fill="white"/>
<path d="M74.0953 9.54663V12.5866L71.9353 9.54663H70.9753V15.1466H72.2553V12.1066L74.4153 15.1466H75.3753V9.54663H74.0953Z" fill="white"/>
<path d="M48.024 21.5386V21.7546C48.024 22.4533 47.776 23.0426 47.28 23.5226C46.784 23.9973 46.1307 24.2346 45.32 24.2346C44.4667 24.2346 43.7627 23.9573 43.208 23.4026C42.6533 22.8426 42.376 22.1573 42.376 21.3466C42.376 20.536 42.6507 19.8533 43.2 19.2986C43.7493 18.7386 44.4453 18.4586 45.288 18.4586C45.8 18.4586 46.2693 18.5813 46.696 18.8266C47.128 19.072 47.4613 19.4 47.696 19.8106L47.32 20.0346C47.1333 19.6826 46.856 19.4 46.488 19.1866C46.1253 18.9733 45.7253 18.8666 45.288 18.8666C44.5627 18.8666 43.9653 19.1066 43.496 19.5866C43.032 20.0613 42.8 20.648 42.8 21.3466C42.8 22.0453 43.0347 22.6346 43.504 23.1146C43.9733 23.5893 44.5787 23.8266 45.32 23.8266C45.976 23.8266 46.5067 23.648 46.912 23.2906C47.3173 22.9333 47.544 22.4826 47.592 21.9386H45.216V21.5386H48.024Z" fill="white"/>
<path d="M53.7026 23.3946C53.1426 23.9546 52.4599 24.2346 51.6546 24.2346C50.8493 24.2346 50.1666 23.9546 49.6066 23.3946C49.0466 22.8293 48.7666 22.1466 48.7666 21.3466C48.7666 20.5466 49.0466 19.8666 49.6066 19.3066C50.1666 18.7413 50.8493 18.4586 51.6546 18.4586C52.4599 18.4586 53.1426 18.7413 53.7026 19.3066C54.2626 19.8666 54.5426 20.5466 54.5426 21.3466C54.5426 22.1466 54.2626 22.8293 53.7026 23.3946ZM49.9026 23.1066C50.3826 23.5866 50.9666 23.8266 51.6546 23.8266C52.3426 23.8266 52.9239 23.5866 53.3986 23.1066C53.8786 22.6213 54.1186 22.0346 54.1186 21.3466C54.1186 20.6586 53.8786 20.0746 53.3986 19.5946C52.9239 19.1093 52.3426 18.8666 51.6546 18.8666C50.9666 18.8666 50.3826 19.1093 49.9026 19.5946C49.4279 20.0746 49.1906 20.6586 49.1906 21.3466C49.1906 22.0346 49.4279 22.6213 49.9026 23.1066Z" fill="white"/>
<path d="M60.2339 23.3946C59.6739 23.9546 58.9912 24.2346 58.1859 24.2346C57.3805 24.2346 56.6979 23.9546 56.1379 23.3946C55.5779 22.8293 55.2979 22.1466 55.2979 21.3466C55.2979 20.5466 55.5779 19.8666 56.1379 19.3066C56.6979 18.7413 57.3805 18.4586 58.1859 18.4586C58.9912 18.4586 59.6739 18.7413 60.2339 19.3066C60.7939 19.8666 61.0739 20.5466 61.0739 21.3466C61.0739 22.1466 60.7939 22.8293 60.2339 23.3946ZM56.4339 23.1066C56.9139 23.5866 57.4979 23.8266 58.1859 23.8266C58.8739 23.8266 59.4552 23.5866 59.9299 23.1066C60.4099 22.6213 60.6499 22.0346 60.6499 21.3466C60.6499 20.6586 60.4099 20.0746 59.9299 19.5946C59.4552 19.1093 58.8739 18.8666 58.1859 18.8666C57.4979 18.8666 56.9139 19.1093 56.4339 19.5946C55.9592 20.0746 55.7219 20.6586 55.7219 21.3466C55.7219 22.0346 55.9592 22.6213 56.4339 23.1066Z" fill="white"/>
<path d="M67.4771 21.5386V21.7546C67.4771 22.4533 67.2291 23.0426 66.7331 23.5226C66.2371 23.9973 65.5838 24.2346 64.7731 24.2346C63.9198 24.2346 63.2158 23.9573 62.6611 23.4026C62.1064 22.8426 61.8291 22.1573 61.8291 21.3466C61.8291 20.536 62.1038 19.8533 62.6531 19.2986C63.2024 18.7386 63.8984 18.4586 64.7411 18.4586C65.2531 18.4586 65.7224 18.5813 66.1491 18.8266C66.5811 19.072 66.9144 19.4 67.1491 19.8106L66.7731 20.0346C66.5864 19.6826 66.3091 19.4 65.9411 19.1866C65.5784 18.9733 65.1784 18.8666 64.7411 18.8666C64.0158 18.8666 63.4184 19.1066 62.9491 19.5866C62.4851 20.0613 62.2531 20.648 62.2531 21.3466C62.2531 22.0453 62.4878 22.6346 62.9571 23.1146C63.4264 23.5893 64.0318 23.8266 64.7731 23.8266C65.4291 23.8266 65.9598 23.648 66.3651 23.2906C66.7705 22.9333 66.9971 22.4826 67.0451 21.9386H64.6691V21.5386H67.4771Z" fill="white"/>
<path d="M68.9637 23.7466H71.6037V24.1466H68.5397V18.5466H68.9637V23.7466Z" fill="white"/>
<path d="M72.9091 23.7466H75.7091V24.1466H72.4851V18.5466H75.6691V18.9466H72.9091V21.1226H75.4691V21.5226H72.9091V23.7466Z" fill="white"/>
<path d="M80.7875 18.5466C81.2888 18.5466 81.7048 18.712 82.0355 19.0426C82.3662 19.3733 82.5315 19.7866 82.5315 20.2826C82.5315 20.7786 82.3662 21.192 82.0355 21.5226C81.7048 21.848 81.2888 22.0106 80.7875 22.0106H79.3075V24.1466H78.8835V18.5466H80.7875ZM80.7875 21.6106C81.1715 21.6106 81.4862 21.4853 81.7315 21.2346C81.9822 20.984 82.1075 20.6666 82.1075 20.2826C82.1075 19.8933 81.9822 19.5733 81.7315 19.3226C81.4862 19.072 81.1715 18.9466 80.7875 18.9466H79.3075V21.6106H80.7875Z" fill="white"/>
<path d="M84.0028 23.7466H86.6428V24.1466H83.5788V18.5466H84.0028V23.7466Z" fill="white"/>
<path d="M91.4484 24.1466L90.9044 22.7226H88.0964L87.5524 24.1466H87.1044L89.2804 18.5466H89.7284L91.8964 24.1466H91.4484ZM88.2564 22.3226H90.7524L89.5044 19.0666L88.2564 22.3226Z" fill="white"/>
<path d="M95.8809 18.5466L93.8409 21.8426V24.1466H93.4169V21.8426L91.3769 18.5466H91.8569L93.6329 21.4346L95.4009 18.5466H95.8809Z" fill="white"/>
<defs>
<clipPath id="clip0_417_974">
<rect width="20" height="20" fill="white" transform="translate(17 7.14661)"/>
</clipPath>
</defs>
</svg>
