<svg width="100" height="36" viewBox="0 0 100 36" fill="none" xmlns="http://www.w3.org/2000/svg">
<rect y="0.146606" width="100" height="35" rx="17.5" fill="#080809"/>
<path d="M21.7893 24.1465C19.408 24.1327 17.4382 19.2717 17.4382 16.7961C17.4382 12.7523 20.4718 11.867 21.641 11.867C22.1678 11.867 22.7304 12.0739 23.2266 12.257C23.5736 12.3847 23.9325 12.5165 24.1321 12.5165C24.2516 12.5165 24.5331 12.4044 24.7817 12.306C25.3118 12.0949 25.9714 11.8326 26.7395 11.8326C26.7409 11.8326 26.7427 11.8326 26.7441 11.8326C27.3176 11.8326 29.0567 11.9585 30.1022 13.5286L30.3471 13.8967L29.9947 14.1626C29.4911 14.5426 28.5724 15.2356 28.5724 16.6085C28.5724 18.2345 29.6129 18.8598 30.1128 19.1605C30.3334 19.2933 30.5618 19.4301 30.5618 19.7295C30.5618 19.925 29.0018 24.1222 26.7363 24.1222C26.182 24.1222 25.7901 23.9556 25.4445 23.8086C25.0948 23.6599 24.7931 23.5317 24.2946 23.5317C24.0419 23.5317 23.7224 23.6512 23.3841 23.778C22.9218 23.9505 22.3985 24.1465 21.8048 24.1465H21.7893Z" fill="white"/>
<path d="M26.9795 8.14661C27.0385 10.274 25.5171 11.7499 23.9975 11.6573C23.7471 9.95958 25.5169 8.14661 26.9795 8.14661Z" fill="white"/>
<path d="M39.03 13.1466H40.08L38.652 8.9466H37.428L36 13.1466H37.05L37.26 12.4866H38.82L39.03 13.1466ZM37.548 11.5866L38.04 10.0446L38.532 11.5866H37.548Z" fill="white"/>
<path d="M42.2049 10.1466L41.5809 12.0486L40.9569 10.1466H39.9609L41.0709 13.1466H42.0909L43.2009 10.1466H42.2049Z" fill="white"/>
<path d="M45.592 10.1466V10.4286C45.394 10.2006 45.1 10.0626 44.698 10.0626C43.912 10.0626 43.264 10.7526 43.264 11.6466C43.264 12.5406 43.912 13.2306 44.698 13.2306C45.1 13.2306 45.394 13.0926 45.592 12.8646V13.1466H46.492V10.1466H45.592ZM44.878 12.3786C44.464 12.3786 44.164 12.0966 44.164 11.6466C44.164 11.1966 44.464 10.9146 44.878 10.9146C45.292 10.9146 45.592 11.1966 45.592 11.6466C45.592 12.0966 45.292 12.3786 44.878 12.3786Z" fill="white"/>
<path d="M47.1523 13.1466H48.0523V8.7666H47.1523V13.1466Z" fill="white"/>
<path d="M49.1609 9.8826C49.4549 9.8826 49.7009 9.6366 49.7009 9.3426C49.7009 9.0486 49.4549 8.8026 49.1609 8.8026C48.8669 8.8026 48.6209 9.0486 48.6209 9.3426C48.6209 9.6366 48.8669 9.8826 49.1609 9.8826ZM48.7109 13.1466H49.6109V10.1466H48.7109V13.1466Z" fill="white"/>
<path d="M52.0635 10.0626C51.6615 10.0626 51.3675 10.2006 51.1695 10.4286V8.9466H50.2695V13.1466H51.1695V12.8646C51.3675 13.0926 51.6615 13.2306 52.0635 13.2306C52.8495 13.2306 53.4975 12.5406 53.4975 11.6466C53.4975 10.7526 52.8495 10.0626 52.0635 10.0626ZM51.8835 12.3786C51.4695 12.3786 51.1695 12.0966 51.1695 11.6466C51.1695 11.1966 51.4695 10.9146 51.8835 10.9146C52.2975 10.9146 52.5975 11.1966 52.5975 11.6466C52.5975 12.0966 52.2975 12.3786 51.8835 12.3786Z" fill="white"/>
<path d="M54.0077 13.1466H54.9077V8.7666H54.0077V13.1466Z" fill="white"/>
<path d="M56.3703 12.0066H58.5003C58.5243 11.8926 58.5363 11.7726 58.5363 11.6466C58.5363 10.7406 57.8883 10.0626 57.0123 10.0626C56.0643 10.0626 55.4163 10.7526 55.4163 11.6466C55.4163 12.5406 56.0523 13.2306 57.0783 13.2306C57.6483 13.2306 58.0923 13.0206 58.3863 12.6126L57.6663 12.1986C57.5463 12.3306 57.3363 12.4266 57.0903 12.4266C56.7603 12.4266 56.4843 12.3186 56.3703 12.0066ZM56.3523 11.3346C56.4363 11.0286 56.6643 10.8606 57.0063 10.8606C57.2763 10.8606 57.5463 10.9866 57.6423 11.3346H56.3523Z" fill="white"/>
<path d="M61.9868 13.2306C62.8688 13.2306 63.5768 12.5406 63.5768 11.6466C63.5768 10.7526 62.8688 10.0626 61.9868 10.0626C61.1048 10.0626 60.3968 10.7526 60.3968 11.6466C60.3968 12.5406 61.1048 13.2306 61.9868 13.2306ZM61.9868 12.3546C61.5968 12.3546 61.2968 12.0726 61.2968 11.6466C61.2968 11.2206 61.5968 10.9386 61.9868 10.9386C62.3768 10.9386 62.6768 11.2206 62.6768 11.6466C62.6768 12.0726 62.3768 12.3546 61.9868 12.3546Z" fill="white"/>
<path d="M65.8439 10.0626C65.4479 10.0626 65.1479 10.2066 64.9859 10.4286V10.1466H64.0859V13.1466H64.9859V11.5086C64.9859 11.0826 65.2139 10.8906 65.5439 10.8906C65.8319 10.8906 66.0659 11.0646 66.0659 11.4366V13.1466H66.9659V11.3046C66.9659 10.4946 66.4499 10.0626 65.8439 10.0626Z" fill="white"/>
<path d="M70.8419 11.0106V10.1466H70.2239V9.3066L69.3239 9.5766V10.1466H68.8439V11.0106H69.3239V12.0726C69.3239 12.9126 69.6659 13.2666 70.8419 13.1466V12.3306C70.4459 12.3546 70.2239 12.3306 70.2239 12.0726V11.0106H70.8419Z" fill="white"/>
<path d="M73.1095 10.0626C72.7135 10.0626 72.4135 10.2066 72.2515 10.4286V8.9466H71.3515V13.1466H72.2515V11.5086C72.2515 11.0826 72.4795 10.8906 72.8095 10.8906C73.0975 10.8906 73.3315 11.0646 73.3315 11.4366V13.1466H74.2315V11.3046C74.2315 10.4946 73.7155 10.0626 73.1095 10.0626Z" fill="white"/>
<path d="M75.6535 12.0066H77.7835C77.8075 11.8926 77.8195 11.7726 77.8195 11.6466C77.8195 10.7406 77.1715 10.0626 76.2955 10.0626C75.3475 10.0626 74.6995 10.7526 74.6995 11.6466C74.6995 12.5406 75.3355 13.2306 76.3615 13.2306C76.9315 13.2306 77.3755 13.0206 77.6695 12.6126L76.9495 12.1986C76.8295 12.3306 76.6195 12.4266 76.3735 12.4266C76.0435 12.4266 75.7675 12.3186 75.6535 12.0066ZM75.6355 11.3346C75.7195 11.0286 75.9475 10.8606 76.2895 10.8606C76.5595 10.8606 76.8295 10.9866 76.9255 11.3346H75.6355Z" fill="white"/>
<path d="M41.05 24.1466H42.8L40.42 17.1466H38.38L36 24.1466H37.75L38.1 23.0466H40.7L41.05 24.1466ZM38.58 21.5466L39.4 18.9766L40.22 21.5466H38.58Z" fill="white"/>
<path d="M46.3369 19.0066C45.6669 19.0066 45.1769 19.2366 44.8469 19.6166V19.1466H43.3469V26.1466H44.8469V23.6766C45.1769 24.0566 45.6669 24.2866 46.3369 24.2866C47.6469 24.2866 48.7269 23.1366 48.7269 21.6466C48.7269 20.1566 47.6469 19.0066 46.3369 19.0066ZM46.0369 22.8666C45.3469 22.8666 44.8469 22.3966 44.8469 21.6466C44.8469 20.8966 45.3469 20.4266 46.0369 20.4266C46.7269 20.4266 47.2269 20.8966 47.2269 21.6466C47.2269 22.3966 46.7269 22.8666 46.0369 22.8666Z" fill="white"/>
<path d="M52.5673 19.0066C51.8973 19.0066 51.4073 19.2366 51.0773 19.6166V19.1466H49.5773V26.1466H51.0773V23.6766C51.4073 24.0566 51.8973 24.2866 52.5673 24.2866C53.8773 24.2866 54.9573 23.1366 54.9573 21.6466C54.9573 20.1566 53.8773 19.0066 52.5673 19.0066ZM52.2673 22.8666C51.5773 22.8666 51.0773 22.3966 51.0773 21.6466C51.0773 20.8966 51.5773 20.4266 52.2673 20.4266C52.9573 20.4266 53.4573 20.8966 53.4573 21.6466C53.4573 22.3966 52.9573 22.8666 52.2673 22.8666Z" fill="white"/>
<path d="M55.8078 24.1466H57.3078V16.8466H55.8078V24.1466Z" fill="white"/>
<path d="M59.7455 22.2466H63.2955C63.3355 22.0566 63.3555 21.8566 63.3555 21.6466C63.3555 20.1366 62.2755 19.0066 60.8155 19.0066C59.2355 19.0066 58.1555 20.1566 58.1555 21.6466C58.1555 23.1366 59.2155 24.2866 60.9255 24.2866C61.8755 24.2866 62.6155 23.9366 63.1055 23.2566L61.9055 22.5666C61.7055 22.7866 61.3555 22.9466 60.9455 22.9466C60.3955 22.9466 59.9355 22.7666 59.7455 22.2466ZM59.7155 21.1266C59.8555 20.6166 60.2355 20.3366 60.8055 20.3366C61.2555 20.3366 61.7055 20.5466 61.8655 21.1266H59.7155Z" fill="white"/>
<path d="M69.2062 24.2866C70.7262 24.2866 71.8063 23.4866 71.8063 22.1366C71.8063 20.6566 70.6163 20.2866 69.5563 19.9666C68.4663 19.6366 68.2962 19.4166 68.2962 19.0966C68.2962 18.8166 68.5462 18.5666 69.0462 18.5666C69.6862 18.5666 70.0162 18.8766 70.2562 19.3766L71.6063 18.5866C71.0963 17.5566 70.1963 17.0066 69.0462 17.0066C67.8363 17.0066 66.6963 17.7866 66.6963 19.1366C66.6963 20.4766 67.7162 20.9766 68.7562 21.2666C69.8062 21.5566 70.2062 21.7266 70.2062 22.1566C70.2062 22.4266 70.0162 22.7266 69.2562 22.7266C68.4662 22.7266 68.0363 22.3366 67.7862 21.7566L66.4062 22.5566C66.7962 23.5866 67.7362 24.2866 69.2062 24.2866Z" fill="white"/>
<path d="M75.3394 20.5866V19.1466H74.3094V17.7466L72.8094 18.1966V19.1466H72.0094V20.5866H72.8094V22.3566C72.8094 23.7566 73.3794 24.3466 75.3394 24.1466V22.7866C74.6794 22.8266 74.3094 22.7866 74.3094 22.3566V20.5866H75.3394Z" fill="white"/>
<path d="M78.491 24.2866C79.961 24.2866 81.141 23.1366 81.141 21.6466C81.141 20.1566 79.961 19.0066 78.491 19.0066C77.021 19.0066 75.841 20.1566 75.841 21.6466C75.841 23.1366 77.021 24.2866 78.491 24.2866ZM78.491 22.8266C77.841 22.8266 77.341 22.3566 77.341 21.6466C77.341 20.9366 77.841 20.4666 78.491 20.4666C79.141 20.4666 79.641 20.9366 79.641 21.6466C79.641 22.3566 79.141 22.8266 78.491 22.8266Z" fill="white"/>
<path d="M83.4895 20.0366V19.1466H81.9895V24.1466H83.4895V21.8866C83.4895 20.8966 84.3695 20.6466 84.9895 20.7466V19.0466C84.3595 19.0466 83.6895 19.3666 83.4895 20.0366Z" fill="white"/>
<path d="M86.8841 22.2466H90.4341C90.4741 22.0566 90.4941 21.8566 90.4941 21.6466C90.4941 20.1366 89.4141 19.0066 87.9541 19.0066C86.3741 19.0066 85.2941 20.1566 85.2941 21.6466C85.2941 23.1366 86.3541 24.2866 88.0641 24.2866C89.0141 24.2866 89.7541 23.9366 90.2441 23.2566L89.0441 22.5666C88.8441 22.7866 88.4941 22.9466 88.0841 22.9466C87.5341 22.9466 87.0741 22.7666 86.8841 22.2466ZM86.8541 21.1266C86.9941 20.6166 87.3741 20.3366 87.9441 20.3366C88.3941 20.3366 88.8441 20.5466 89.0041 21.1266H86.8541Z" fill="white"/>
</svg>
